<svg width="26" height="15" viewBox="0 0 26 15" fill="none" xmlns="http://www.w3.org/2000/svg">
<path d="M5.11689 14.1128C4.48213 14.1128 3.96455 13.9053 3.56416 13.4902C3.16377 13.0801 2.96357 12.5479 2.96357 11.8936V9.32275C2.96357 8.80029 2.78535 8.39258 2.42891 8.09961C2.07246 7.80664 1.5793 7.64795 0.949414 7.62354V6.62012C1.58418 6.5957 2.07734 6.43457 2.42891 6.13672C2.78535 5.83887 2.96357 5.43604 2.96357 4.92822V2.3501C2.96357 1.68115 3.16133 1.14404 3.55684 0.73877C3.95234 0.333496 4.47236 0.130859 5.11689 0.130859H7.05781V1.14893H5.49775C5.05342 1.14893 4.73359 1.25635 4.53828 1.47119C4.34297 1.68604 4.24531 2.05469 4.24531 2.57715V5.11133C4.24531 5.58984 4.08906 6.01221 3.77656 6.37842C3.46406 6.73975 3.05635 6.98145 2.55342 7.10352V7.11816C3.05147 7.23535 3.45674 7.47461 3.76924 7.83594C4.08662 8.19238 4.24531 8.62207 4.24531 9.125V11.6665C4.24531 12.1841 4.34297 12.5503 4.53828 12.7651C4.73359 12.9849 5.05342 13.0947 5.49775 13.0947H7.05781V14.1128H5.11689ZM18.9275 14.1128V13.0947H20.4876C20.9319 13.0947 21.2518 12.9849 21.4471 12.7651C21.6473 12.5503 21.7474 12.1841 21.7474 11.6665V9.125C21.7474 8.62695 21.9036 8.19727 22.2161 7.83594C22.5286 7.47461 22.9339 7.23535 23.4319 7.11816V7.10352C22.9339 6.98145 22.5286 6.7373 22.2161 6.37109C21.9036 6.00488 21.7474 5.58496 21.7474 5.11133V2.57715C21.7474 2.06445 21.6497 1.69824 21.4544 1.47852C21.2591 1.25879 20.9368 1.14893 20.4876 1.14893H18.9275V0.130859H20.8685C21.5179 0.130859 22.0379 0.333496 22.4285 0.73877C22.824 1.14404 23.0218 1.68115 23.0218 2.3501V4.92822C23.0218 5.44092 23.2 5.84619 23.5564 6.14404C23.9129 6.43701 24.4061 6.5957 25.0359 6.62012V7.62354C24.4012 7.64795 23.9056 7.80908 23.5491 8.10693C23.1976 8.3999 23.0218 8.80518 23.0218 9.32275V11.8936C23.0218 12.5527 22.8216 13.0874 22.4212 13.4976C22.0208 13.9077 21.5032 14.1128 20.8685 14.1128H18.9275Z" fill="#F9DECA"/>
</svg>
